<svg width="120" height="120" xmlns="http://www.w3.org/2000/svg" version="1.1">
 <g>
  <title>Layer 1</title>
  <g transform="rotate(90 59.8007 60)" id="svg_7">
   <ellipse fill="none" stroke="#02063B" stroke-width="5" cx="60" cy="60" id="svg_3" rx="40" ry="40"/>
   <g id="svg_1" stroke="null" transform="rotate(90 60 60)">
    <path fill="none" paint-order="fill stroke markers" d="m39.49999,69.3183l0.10123,0.06541l0.10123,0.0504l0.10123,0.0353l0.10123,0.02015l0.10123,0.00497l0.10123,-0.01022l0.10123,-0.02539l0.10123,-0.04052l0.10123,-0.05559l0.10123,-0.07057l0.10123,-0.08544l0.10123,-0.10017l0.10123,-0.11474l0.10123,-0.12912l0.10123,-0.1433l0.10123,-0.15725l0.10123,-0.17095l0.10123,-0.18438l0.10123,-0.19751l0.10123,-0.21032l0.10123,-0.2228l0.10123,-0.23492l0.10123,-0.24666l0.10123,-0.25802l0.10123,-0.26895l0.10123,-0.27946l0.10123,-0.28952l0.10123,-0.29912l0.10123,-0.30824l0.10123,-0.31686l0.10123,-0.32498l0.10123,-0.33258l0.10123,-0.33965l0.10123,-0.34617l0.10123,-0.35214l0.10123,-0.35755l0.10123,-0.36238l0.10123,-0.36664l0.10123,-0.37031l0.10123,-0.37338l0.10123,-0.37586l0.10123,-0.37774l0.10123,-0.37901l0.10123,-0.37968l0.10123,-0.37974l0.10123,-0.37919l0.10123,-0.37803l0.10123,-0.37627l0.10123,-0.37391l0.10123,-0.37095l0.10123,-0.3674l0.10123,-0.36326l0.10123,-0.35853l0.10123,-0.35324l0.10123,-0.34738l0.10123,-0.34096l0.10123,-0.334l0.10123,-0.3265l0.10123,-0.31848l0.10123,-0.30996l0.10123,-0.30093l0.10123,-0.29143l0.10123,-0.28145l0.10123,-0.27103l0.10123,-0.26018l0.10123,-0.2489l0.10123,-0.23723l0.10123,-0.22519l0.10123,-0.21277l0.10123,-0.20002l0.10123,-0.18695l0.10123,-0.17359l0.10123,-0.15994l0.10123,-0.14604l0.10123,-0.1319l0.10123,-0.11755l0.10123,-0.10301l0.10123,-0.08831l0.10123,-0.07347l0.10123,-0.05851l0.10123,-0.04346l0.10123,-0.02834l0.10123,-0.01317l0.10123,0.00202l0.10123,0.0172l0.10123,0.03236l0.10123,0.04747l0.10123,0.0625l0.10123,0.07743l0.10123,0.09224l0.10123,0.10689l0.10123,0.12138l0.10123,0.13568l0.10123,0.14975l0.10123,0.16359l0.10123,0.17717l0.10123,0.19046l0.10123,0.20344l0.10123,0.21611l0.10123,0.22842l0.10123,0.24037l0.10123,0.25194l0.10123,0.2631l0.10123,0.27384l0.10123,0.28415l0.10123,0.294l0.10123,0.30338l0.10123,0.31227l0.10123,0.32066l0.10123,0.32855l0.10123,0.3359l0.10123,0.34272l0.10123,0.34899l0.10123,0.3547l0.10123,0.35985l0.10123,0.36441l0.10123,0.3684l0.10123,0.3718l0.10123,0.3746l0.10123,0.3768l0.10123,0.3784l0.10123,0.37939l0.10123,0.37978l0.10123,0.37956l0.10123,0.37873l0.10123,0.3773l0.10123,0.37526l0.10123,0.37262l0.10123,0.36939l0.10123,0.36557l0.10123,0.36116l0.10123,0.35617l0.10123,0.35061l0.10123,0.34449l0.10123,0.33782l0.10123,0.33062l0.10123,0.32288l0.10123,0.31462l0.10123,0.30586l0.10123,0.29662l0.10123,0.28689l0.10123,0.27671l0.10123,0.26609l0.10123,0.25504l0.10123,0.24358l0.10123,0.23173l0.10123,0.21952l0.10123,0.20695l0.10123,0.19405l0.10123,0.18084l0.10123,0.16734l0.10123,0.15357l0.10123,0.13956l0.10123,0.12532l0.10123,0.11088l0.10123,0.09627l0.10123,0.0815l0.10123,0.0666l0.10123,0.0516l0.10123,0.03651l0.10123,0.02136l0.10123,0.00618l0.10123,-0.00901l0.10123,-0.02418l0.10123,-0.03932l0.10123,-0.0544l0.10123,-0.06938l0.10123,-0.08426l0.10123,-0.099l0.10123,-0.11358l0.10123,-0.12798l0.10123,-0.14218l0.10123,-0.15615l0.10123,-0.16987l0.10123,-0.18332l0.10123,-0.19647l0.10123,-0.20931l0.10123,-0.22182l0.10123,-0.23397l0.10123,-0.24574l0.10123,-0.25713l0.10123,-0.2681l0.10123,-0.27864l0.10123,-0.28874l0.10123,-0.29837l0.10123,-0.30753l0.10123,-0.3162l0.10123,-0.32436l0.10123,-0.332l0.10123,-0.33911l0.10123,-0.34567l0.10123,-0.35169l0.10123,-0.35714l0.10123,-0.36202l0.10123,-0.36632l0.10123,-0.37004l0.10123,-0.37316l0.10123,-0.37569l0.10123,-0.37761l0.10123,-0.37893l0.10123,-0.37965l0.10123,-0.37975l0.10123,-0.37925l0.10123,-0.37815l0.10123,-0.37644l0.10123,-0.37412l0.10123,-0.37121l0.10123,-0.3677l0.10123,-0.36361l0.10123,-0.35893l0.10123,-0.35368l0.10123,-0.34787l0.10123,-0.34149l0.10123,-0.33457l0.10123,-0.32712l0.10123,-0.31914l0.10123,-0.31065l0.10123,-0.30167l0.10123,-0.2922l0.10123,-0.28227l0.10123,-0.27188l0.10123,-0.26106l0.10123,-0.24982l0.10123,-0.23818l0.10123,-0.22616l0.10123,-0.21378l0.10123,-0.20105l0.10123,-0.18801l0.10123,-0.17466l0.10123,-0.16103l0.10123,-0.14715l0.10123,-0.13303l0.10123,-0.1187l0.10123,-0.10418l0.10123,-0.08949l0.10123,-0.07466l0.10123,-0.05971l0.10123,-0.04466l0.10123,-0.02954l0.10123,-0.01438l0.10123,0.00081l0.10123,0.016l0.10123,0.03116l0.10123,0.04627l0.10123,0.0613l0.10123,0.07624l0.10123,0.09106l0.10123,0.10573l0.10123,0.12023l0.10123,0.13455l0.10123,0.14864l0.10123,0.1625l0.10123,0.17609l0.10123,0.18941l0.10123,0.20242l0.10123,0.21511l0.10123,0.22745l0.10123,0.23943l0.10123,0.25103l0.10123,0.26223l0.10123,0.273l0.10123,0.28334l0.10123,0.29323l0.10123,0.30265l0.10123,0.31158l0.10123,0.32001l0.10123,0.32794l0.10123,0.33534l0.10123,0.3422l0.10123,0.34851l0.10123,0.35427l0.10123,0.35946l0.10123,0.36407l0.10123,0.3681l0.10123,0.37155l0.10123,0.3744l0.10123,0.37665l0.10123,0.37829l0.10123,0.37934l0.10123,0.37977l0.10123,0.3796l0.10123,0.37882l0.10123,0.37743l0.10123,0.37545l0.10123,0.37286l0.10123,0.36967l0.10123,0.36589l0.10123,0.36153l0.10123,0.35659l0.10123,0.35107l0.10123,0.345l0.10123,0.33838l0.10123,0.33121l0.10123,0.32351l0.10123,0.3153l0.10123,0.30658l0.10123,0.29737l0.10123,0.28768l0.10123,0.27754l0.10123,0.26695l0.10123,0.25593l0.10123,0.24451l0.10123,0.23269l0.10123,0.2205l0.10123,0.20796l0.10123,0.19509l0.10123,0.1819l0.10123,0.16842l0.10123,0.15468l0.10123,0.14068l0.10123,0.12646l0.10123,0.11204l0.10123,0.09744l0.10123,0.08268l0.10123,0.06779l0.10123,0.0528l0.10123,0.03771l0.10123,0.02257l0.10123,0.00739l0.10123,-0.0078l0.10123,-0.02298l0.10123,-0.03812l0.10123,-0.0532l0.10123,-0.06819l0.10123,-0.08308l0.10123,-0.09783l0.10123,-0.11243l0.10123,-0.12685l0.10123,-0.14106l0.10123,-0.15505l0.10123,-0.16879l0.10123,-0.18226l0.10123,-0.19544l0.10123,-0.2083l0.10123,-0.22083l0.10123,-0.23301l0.10123,-0.24482l0.10123,-0.25624l0.10123,-0.26724l0.10123,-0.27782l0.10123,-0.28795l0.10123,-0.29762l0.10123,-0.30682l0.10123,-0.31553l0.10123,-0.32372l0.10123,-0.33141l0.10123,-0.33856l0.10123,-0.34517l0.10123,-0.35123l0.10123,-0.35673l0.10123,-0.36165l0.10123,-0.366l0.10123,-0.36976l0.10123,-0.37293l0.10123,-0.37551l0.10123,-0.37748l0.10123,-0.37885l0.10123,-0.37961l0.10123,-0.37977l0.10123,-0.37932l0.10123,-0.37826l0.10123,-0.37659l0.10123,-0.37433l0.10123,-0.37146l0.10123,-0.368l0.10123,-0.36396l0.10123,-0.35933l0.10123,-0.35412l0.10123,-0.34835l0.10123,-0.34202l0.10123,-0.33514l0.10123,-0.32773l0.10123,-0.3198l0.10123,-0.31135l0.10123,-0.3024l0.10123,-0.29297l0.10123,-0.28307l0.10123,-0.27272l0.10123,-0.26193l0.10123,-0.25073l0.10123,-0.23912l0.10123,-0.22713l0.10123,-0.21477l0.10123,-0.20208l0.10123,-0.18906l0.10123,-0.17573l0.10123,-0.16213l0.10123,-0.14827l0.10123,-0.13416l0.10123,-0.11985l0.10123,-0.10534l0.10123,-0.09067l0.10123,-0.07584l0.10123,-0.0609l0.10123,-0.04586l0.10123,-0.03075l0.10123,-0.01559l0.10123,-0.0004l0.10123,0.01479l0.10123,0.02995l0.10123,0.04507l0.10123,0.06011l0.10123,0.07506l0.10123,0.08989l0.10123,0.10457" stroke-linecap="round" stroke-linejoin="round" stroke-miterlimit="10" stroke-width="4" id="svg_2" stroke="#02063B"/>
   </g>
   <path fill="none" stroke="#02063B" stroke-width="5" d="m33.3434,59.9873l4.039,-5.27977l4.039,5.27977l-2.0195,0l0,5.30518l-4.03899,0l0,-5.30518l-2.0195,0l-0.00001,0z" id="svg_4" transform="rotate(-90 37.3824 60)"/>
   <line stroke="#02063B" fill="none" stroke-width="5" x1="19.79528" y1="60" x2="-0.32505" y2="60" id="svg_5"/>
   <line stroke="#02063B" fill="none" stroke-width="5" x1="119.92636" y1="60" x2="100" y2="60" id="svg_6"/>
  </g>
 </g>

</svg>