<svg width="120" height="120" xmlns="http://www.w3.org/2000/svg" version="1.1">
 <g>
  <title>Layer 1</title>
  <ellipse transform="rotate(90 59.8007 60.1993)" fill="none" stroke="#02063B" stroke-width="5" cx="59.80065" cy="60.19935" id="svg_3" rx="40" ry="40"/>
  <path fill="none" stroke="#02063B" stroke-width="5" d="m55.76165,37.56905l4.039,-5.27977l4.039,5.27977l-2.0195,0l0,5.30518l-4.03899,0l0,-5.30518l-2.0195,0l-0.00001,0z" id="svg_4"/>
  <line transform="rotate(90 59.8007 9.93446)" stroke="#02063B" fill="none" stroke-width="5" x1="69.86082" y1="9.93446" x2="49.74049" y2="9.93446" id="svg_5"/>
  <line transform="rotate(90 59.8007 110.163)" stroke="#02063B" fill="none" stroke-width="5" x1="69.76383" y1="110.16253" x2="49.83747" y2="110.16253" id="svg_6"/>
  <line stroke="#02063B" id="svg_8" y2="72.91896" x2="60" y1="53" x1="60" stroke-width="5" fill="none"/>
  <line stroke="#02063B" id="svg_9" y2="72.04406" x2="79.28777" y1="72.22823" x1="57.3725" stroke-width="5" fill="none"/>
  <line stroke="#02063B" id="svg_10" y2="52.70707" x2="76.7095" y1="73.3332" x1="76.7095" stroke-width="5" fill="none"/>
  <line stroke="#02063B" id="svg_11" y2="55.10117" x2="62.34487" y1="55.28533" x1="40.79794" stroke-width="5" fill="none"/>
  <line stroke="#02063B" id="svg_12" y2="74.94474" x2="43.24127" y1="55.02578" x1="43.24127" stroke-width="5" fill="none"/>
 </g>

</svg>