<svg width="120" height="120" xmlns="http://www.w3.org/2000/svg">
 <g id="Layer_1">
  <title>Layer 1</title>
  <g filter="url(#svg_7_blur)" transform="rotate(90 59.8649 60)" id="svg_7">
   <ellipse fill="none" stroke="#000" stroke-width="5" cx="60" cy="60" id="svg_1" rx="30" ry="30"/>
   <line fill="none" stroke="#000" stroke-width="5" x1="-0.27027" y1="60" x2="30" y2="60" id="svg_2" stroke-linejoin="undefined" stroke-linecap="undefined"/>
   <line fill="none" stroke="#000" stroke-width="5" x1="90" y1="60" x2="120" y2="60" id="svg_3" stroke-linejoin="undefined" stroke-linecap="undefined"/>
   <line fill="none" stroke="#000" stroke-width="5" x1="80" y1="55" x2="80" y2="65" id="svg_4" stroke-linejoin="undefined" stroke-linecap="undefined" transform="rotate(90 80 60)"/>
   <line fill="none" stroke="#000" stroke-width="5" x1="40" y1="55" x2="40" y2="65" id="svg_5" stroke-linejoin="undefined" stroke-linecap="undefined"/>
   <line fill="none" stroke="#000" stroke-width="5" x1="40" y1="55" x2="40" y2="65" id="svg_6" stroke-linejoin="undefined" stroke-linecap="undefined" transform="rotate(90 40 60)"/>
   <line fill="none" stroke="#000" stroke-width="5" x1="50" y1="70" x2="70" y2="80" id="svg_8" stroke-linejoin="undefined" stroke-linecap="undefined"/>
   <line fill="none" stroke="#000" stroke-width="5" x1="50" y1="50" x2="70" y2="40" id="svg_9" stroke-linejoin="undefined" stroke-linecap="undefined"/>
   <line fill="none" stroke="#000" stroke-width="5" x1="50" y1="70" x2="70" y2="60" id="svg_10" stroke-linejoin="undefined" stroke-linecap="undefined"/>
   <line fill="none" stroke="#000" stroke-width="5" x1="50" y1="51" x2="70" y2="60" id="svg_14" stroke-linejoin="undefined" stroke-linecap="undefined"/>
   <rect fill="none" stroke-width="5" x="51.48935" y="70.11819" width="0.56738" height="0" id="svg_16" stroke="#000"/>
   <line fill="none" stroke-width="5" x1="51" y1="48" x2="51" y2="53" id="svg_17" stroke="#000"/>
   <line fill="none" stroke-width="5" x1="51.53097" y1="67.46903" x2="51.53097" y2="72.46903" id="svg_18" stroke="#000"/>
   <line fill="none" stroke-width="5" x1="68.52212" y1="57.55752" x2="68.52212" y2="62.55752" id="svg_19" stroke="#000"/>
  </g>
 </g>

</svg>