<svg width="119.99999999999999" height="119.99999999999999" xmlns="http://www.w3.org/2000/svg" version="1.1">
 <g>
  <title>Layer 1</title>
  <ellipse transform="rotate(90 60 60)" stroke="#02063B" ry="40" rx="40" id="svg_3" cy="60" cx="60" stroke-width="5" fill="none"/>
  <line transform="rotate(90 60.3565 9.79069)" stroke="#02063B" id="svg_5" y2="9.79069" x2="50.61789" y1="9.79069" x1="70.09513" stroke-width="5" fill="none"/>
  <line transform="rotate(90 60.35650444030762,109.75184631347656)" stroke="#02063B" id="svg_6" y2="110" x2="50" y1="110" x1="70" stroke-width="5" fill="none"/>
  <line stroke="#02063B" id="svg_7" y2="35" x2="65" y1="35" x1="55" stroke-width="2" fill="none" transform="rotate(90 60 35)"/>
  <line stroke="#02063B" id="svg_8" y2="35" x2="65" y1="35" x1="55" stroke-width="2" fill="none"/>
  <line stroke="#02063B" id="svg_9" y2="85" x2="65" y1="85" x1="55" stroke-width="2" fill="none"/>
  <line id="svg_15" y2="48" x2="59.43518" y1="69" x1="41.43518" stroke-width="5" stroke="#02063B" fill="none"/>
  <line id="svg_16" y2="72" x2="59.43518" y1="48" x1="59.43518" stroke-width="5" stroke="#02063B" fill="none"/>
  <line id="svg_17" y2="48" x2="76.43518" y1="69" x1="59.43518" stroke-width="5" stroke="#02063B" fill="none"/>
  <line id="svg_18" y2="72" x2="77.43518" y1="48" x1="77.43518" stroke-width="5" stroke="#02063B" fill="none"/>
  <line stroke="#02063B" id="svg_19" y2="49" x2="56.43518" y1="50.61111" x1="61.43518" stroke-width="5" fill="none"/>
  <line stroke="#02063B" id="svg_20" y2="48.76852" x2="73.56481" y1="50.37963" x1="78.56481" stroke-width="5" fill="none"/>
 </g>

</svg>