<svg width="120" height="120" xmlns="http://www.w3.org/2000/svg" version="1.1">
 <g>
  <title>Layer 1</title>
  <ellipse transform="rotate(90 60 60)" stroke="#02063B" ry="40" rx="40" id="svg_3" cy="60" cx="60" stroke-width="5" fill="none"/>
  <line transform="rotate(90 60.3565 9.79069)" stroke="#02063B" id="svg_5" y2="9.79069" x2="50.61789" y1="9.79069" x1="70.09513" stroke-width="5" fill="none"/>
  <line transform="rotate(90 60.35650444030762,109.75184631347656)" stroke="#02063B" id="svg_6" y2="110" x2="50" y1="110" x1="70" stroke-width="5" fill="none"/>
  <line stroke="#02063B" id="svg_7" y2="35" x2="65" y1="35" x1="55" stroke-width="2" fill="none" transform="rotate(90 60 35)"/>
  <line stroke="#02063B" id="svg_8" y2="35" x2="65" y1="35" x1="55" stroke-width="2" fill="none"/>
  <line stroke="#02063B" id="svg_9" y2="90" x2="65" y1="90" x1="55" stroke-width="2" fill="none"/>
  <line id="svg_1" y2="50.67981" x2="50" y1="72.67981" x1="40" stroke-width="5" stroke="#02063B" fill="none"/>
  <line id="svg_2" y2="72.67981" x2="60" y1="49.67981" x1="50" stroke-width="5" stroke="#02063B" fill="none"/>
  <line id="svg_4" y2="50.67981" x2="70" y1="72.67981" x1="60" stroke-width="5" stroke="#02063B" fill="none"/>
  <line id="svg_10" y2="72.67981" x2="80" y1="50.67981" x1="70" stroke-width="5" stroke="#02063B" fill="none"/>
  <line id="svg_11" y2="51.67981" x2="52" y1="51.67981" x1="48" stroke-width="5" stroke="#02063B" fill="none"/>
  <line id="svg_12" y2="71.67981" x2="62" y1="71.67981" x1="58" stroke-width="5" stroke="#02063B" fill="none"/>
  <line id="svg_14" y2="51.67981" x2="72.18561" y1="51.67981" x1="68.18561" stroke-width="5" stroke="#02063B" fill="none"/>
 </g>

</svg>